<svg width="205" height="41" viewBox="0 0 205 41" fill="none" xmlns="http://www.w3.org/2000/svg">
<path d="M54.4281 11.862H51.421C51.3661 11.4729 51.254 11.1274 51.0846 10.8253C50.9153 10.5186 50.6979 10.2577 50.4324 10.0426C50.1669 9.82749 49.8603 9.66272 49.5124 9.54829C49.1691 9.43387 48.7961 9.37666 48.3933 9.37666C47.6656 9.37666 47.0317 9.55745 46.4916 9.91903C45.9515 10.276 45.5327 10.7978 45.2352 11.4844C44.9377 12.1664 44.7889 12.9948 44.7889 13.9697C44.7889 14.9721 44.9377 15.8142 45.2352 16.4962C45.5373 17.1782 45.9584 17.6931 46.4984 18.041C47.0385 18.3888 47.6633 18.5627 48.3727 18.5627C48.7709 18.5627 49.1394 18.5101 49.4781 18.4048C49.8214 18.2996 50.1257 18.1462 50.3912 17.9448C50.6567 17.7389 50.8764 17.4894 51.0503 17.1965C51.2288 16.9036 51.3524 16.5694 51.421 16.1941L54.4281 16.2079C54.3503 16.8532 54.1558 17.4757 53.8446 18.0753C53.5379 18.6703 53.1237 19.2035 52.6019 19.675C52.0847 20.1418 51.4668 20.5125 50.7482 20.7872C50.0342 21.0572 49.2263 21.1922 48.3247 21.1922C47.0706 21.1922 45.9492 20.9085 44.9606 20.3409C43.9765 19.7734 43.1984 18.9518 42.6263 17.8762C42.0587 16.8006 41.775 15.4984 41.775 13.9697C41.775 12.4364 42.0633 11.1319 42.64 10.0563C43.2167 8.98074 43.9994 8.16146 44.988 7.59848C45.9767 7.03093 47.0889 6.74716 48.3247 6.74716C49.1394 6.74716 49.8946 6.86158 50.5903 7.09043C51.2906 7.31929 51.9108 7.65341 52.4509 8.0928C52.9909 8.52762 53.4303 9.06084 53.769 9.69247C54.1123 10.3241 54.332 11.0473 54.4281 11.862ZM60.6896 21.206C59.6232 21.206 58.7009 20.9794 57.9228 20.5263C57.1493 20.0686 56.552 19.4324 56.1309 18.6177C55.7098 17.7984 55.4993 16.8486 55.4993 15.7685C55.4993 14.6791 55.7098 13.7271 56.1309 12.9124C56.552 12.0931 57.1493 11.4569 57.9228 11.0038C58.7009 10.5461 59.6232 10.3172 60.6896 10.3172C61.7561 10.3172 62.6761 10.5461 63.4496 11.0038C64.2277 11.4569 64.8273 12.0931 65.2483 12.9124C65.6694 13.7271 65.88 14.6791 65.88 15.7685C65.88 16.8486 65.6694 17.7984 65.2483 18.6177C64.8273 19.4324 64.2277 20.0686 63.4496 20.5263C62.6761 20.9794 61.7561 21.206 60.6896 21.206ZM60.7034 18.9403C61.1885 18.9403 61.5936 18.803 61.9186 18.5284C62.2435 18.2492 62.4884 17.8693 62.6532 17.3887C62.8225 16.9081 62.9072 16.3612 62.9072 15.7479C62.9072 15.1345 62.8225 14.5876 62.6532 14.107C62.4884 13.6264 62.2435 13.2465 61.9186 12.9673C61.5936 12.6881 61.1885 12.5485 60.7034 12.5485C60.2136 12.5485 59.8017 12.6881 59.4676 12.9673C59.138 13.2465 58.8886 13.6264 58.7192 14.107C58.5544 14.5876 58.4721 15.1345 58.4721 15.7479C58.4721 16.3612 58.5544 16.9081 58.7192 17.3887C58.8886 17.8693 59.138 18.2492 59.4676 18.5284C59.8017 18.803 60.2136 18.9403 60.7034 18.9403ZM70.1264 14.9034V21H67.2017V10.4545H69.9891V12.3151H70.1127C70.3461 11.7018 70.7375 11.2166 71.2867 10.8596C71.836 10.498 72.5019 10.3172 73.2846 10.3172C74.0169 10.3172 74.6554 10.4774 75.2001 10.7978C75.7447 11.1182 76.1681 11.5759 76.4702 12.1709C76.7723 12.7614 76.9233 13.4662 76.9233 14.2855V21H73.9986V14.8073C74.0032 14.1619 73.8384 13.6585 73.5043 13.2969C73.1702 12.9307 72.7102 12.7476 72.1243 12.7476C71.7307 12.7476 71.3828 12.8323 71.0807 13.0017C70.7832 13.171 70.5498 13.4182 70.3805 13.7431C70.2157 14.0635 70.131 14.4503 70.1264 14.9034ZM87.4226 13.4616L84.745 13.6264C84.6992 13.3976 84.6008 13.1916 84.4498 13.0085C84.2987 12.8209 84.0996 12.6721 83.8525 12.5623C83.6099 12.4478 83.3193 12.3906 82.9806 12.3906C82.5274 12.3906 82.1453 12.4867 81.834 12.679C81.5228 12.8666 81.3672 13.1184 81.3672 13.4342C81.3672 13.6859 81.4679 13.8988 81.6692 14.0727C81.8706 14.2466 82.2162 14.3862 82.7059 14.4915L84.6146 14.8759C85.6398 15.0865 86.4042 15.4252 86.9076 15.892C87.4111 16.3589 87.6629 16.9722 87.6629 17.732C87.6629 18.4231 87.4592 19.0296 87.0518 19.5514C86.649 20.0732 86.0952 20.4805 85.3904 20.7734C84.6901 21.0618 83.8822 21.206 82.9668 21.206C81.5708 21.206 80.4586 20.9153 79.6302 20.334C78.8063 19.7482 78.3234 18.9518 78.1816 17.9448L81.0582 17.7938C81.1452 18.2195 81.3557 18.5444 81.6898 18.7687C82.024 18.9884 82.4519 19.0982 82.9737 19.0982C83.4863 19.0982 83.8983 18.9998 84.2095 18.803C84.5253 18.6016 84.6855 18.343 84.6901 18.0272C84.6855 17.7618 84.5734 17.5443 84.3537 17.375C84.134 17.2011 83.7953 17.0683 83.3376 16.9768L81.5113 16.6129C80.4815 16.407 79.7149 16.05 79.2114 15.5419C78.7125 15.0339 78.463 14.3862 78.463 13.599C78.463 12.9216 78.6461 12.338 79.0123 11.8482C79.383 11.3585 79.9025 10.9809 80.5708 10.7154C81.2436 10.45 82.0308 10.3172 82.9325 10.3172C84.2644 10.3172 85.3126 10.5987 86.0769 11.1617C86.8459 11.7247 87.2944 12.4913 87.4226 13.4616ZM94.5337 10.4545V12.6515H88.1831V10.4545H94.5337ZM89.6248 7.92803H92.5495V17.7595C92.5495 18.0295 92.5907 18.2401 92.6731 18.3911C92.7555 18.5376 92.8699 18.6405 93.0164 18.7C93.1674 18.7595 93.3414 18.7893 93.5382 18.7893C93.6755 18.7893 93.8128 18.7779 93.9501 18.755C94.0874 18.7275 94.1927 18.7069 94.2659 18.6932L94.7259 20.8696C94.5794 20.9153 94.3735 20.968 94.108 21.0275C93.8425 21.0915 93.5199 21.1304 93.14 21.1442C92.4351 21.1716 91.8172 21.0778 91.2863 20.8627C90.7599 20.6476 90.3503 20.3134 90.0573 19.8603C89.7644 19.4072 89.6202 18.8351 89.6248 18.1439V7.92803ZM95.8589 21V10.4545H98.6943V12.2945H98.8042C98.9964 11.64 99.3191 11.1457 99.7722 10.8116C100.225 10.4729 100.747 10.3035 101.338 10.3035C101.484 10.3035 101.642 10.3127 101.811 10.331C101.981 10.3493 102.129 10.3744 102.258 10.4065V13.0017C102.12 12.9605 101.93 12.9238 101.688 12.8918C101.445 12.8598 101.223 12.8437 101.022 12.8437C100.591 12.8437 100.207 12.9376 99.8683 13.1252C99.5342 13.3083 99.2687 13.5646 99.0719 13.8942C98.8797 14.2237 98.7836 14.6036 98.7836 15.0339V21H95.8589ZM109.952 16.5099V10.4545H112.877V21H110.069V19.0845H109.959C109.721 19.7024 109.325 20.199 108.771 20.5743C108.222 20.9497 107.552 21.1373 106.76 21.1373C106.055 21.1373 105.435 20.9771 104.899 20.6567C104.364 20.3363 103.945 19.8809 103.643 19.2905C103.345 18.7 103.194 17.9929 103.19 17.169V10.4545H106.114V16.6473C106.119 17.2697 106.286 17.7618 106.616 18.1233C106.945 18.4849 107.387 18.6657 107.941 18.6657C108.293 18.6657 108.623 18.5856 108.929 18.4254C109.236 18.2607 109.483 18.0181 109.671 17.6977C109.863 17.3773 109.957 16.9814 109.952 16.5099ZM119.401 21.206C118.321 21.206 117.392 20.9771 116.614 20.5194C115.84 20.0571 115.245 19.4164 114.829 18.5971C114.417 17.7778 114.211 16.8349 114.211 15.7685C114.211 14.6883 114.419 13.7408 114.835 12.9261C115.257 12.1068 115.854 11.4684 116.627 11.0107C117.401 10.5484 118.321 10.3172 119.387 10.3172C120.307 10.3172 121.113 10.4843 121.804 10.8184C122.495 11.1525 123.042 11.6217 123.445 12.2259C123.848 12.83 124.07 13.5395 124.111 14.3542H121.351C121.273 13.8278 121.067 13.4044 120.733 13.084C120.403 12.7591 119.971 12.5966 119.435 12.5966C118.982 12.5966 118.586 12.7202 118.248 12.9673C117.914 13.2099 117.653 13.5646 117.465 14.0315C117.277 14.4983 117.183 15.0636 117.183 15.7273C117.183 16.4001 117.275 16.9722 117.458 17.4437C117.646 17.9151 117.909 18.2744 118.248 18.5215C118.586 18.7687 118.982 18.8923 119.435 18.8923C119.769 18.8923 120.069 18.8236 120.335 18.6863C120.605 18.549 120.827 18.3499 121.001 18.089C121.179 17.8235 121.296 17.5054 121.351 17.1347H124.111C124.065 17.9403 123.845 18.6497 123.452 19.263C123.063 19.8718 122.525 20.3478 121.838 20.6911C121.152 21.0343 120.339 21.206 119.401 21.206ZM131.012 10.4545V12.6515H124.662V10.4545H131.012ZM126.104 7.92803H129.028V17.7595C129.028 18.0295 129.07 18.2401 129.152 18.3911C129.234 18.5376 129.349 18.6405 129.495 18.7C129.646 18.7595 129.82 18.7893 130.017 18.7893C130.154 18.7893 130.292 18.7779 130.429 18.755C130.566 18.7275 130.672 18.7069 130.745 18.6932L131.205 20.8696C131.058 20.9153 130.852 20.968 130.587 21.0275C130.321 21.0915 129.999 21.1304 129.619 21.1442C128.914 21.1716 128.296 21.0778 127.765 20.8627C127.239 20.6476 126.829 20.3134 126.536 19.8603C126.243 19.4072 126.099 18.8351 126.104 18.1439V7.92803ZM132.338 21V10.4545H135.262V21H132.338ZM133.807 9.09517C133.372 9.09517 132.999 8.95099 132.688 8.66264C132.381 8.36971 132.228 8.01957 132.228 7.61221C132.228 7.20944 132.381 6.86387 132.688 6.57552C132.999 6.28259 133.372 6.13613 133.807 6.13613C134.242 6.13613 134.612 6.28259 134.919 6.57552C135.23 6.86387 135.386 7.20944 135.386 7.61221C135.386 8.01957 135.23 8.36971 134.919 8.66264C134.612 8.95099 134.242 9.09517 133.807 9.09517ZM141.79 21.206C140.723 21.206 139.801 20.9794 139.023 20.5263C138.25 20.0686 137.652 19.4324 137.231 18.6177C136.81 17.7984 136.6 16.8486 136.6 15.7685C136.6 14.6791 136.81 13.7271 137.231 12.9124C137.652 12.0931 138.25 11.4569 139.023 11.0038C139.801 10.5461 140.723 10.3172 141.79 10.3172C142.856 10.3172 143.776 10.5461 144.55 11.0038C145.328 11.4569 145.928 12.0931 146.349 12.9124C146.77 13.7271 146.98 14.6791 146.98 15.7685C146.98 16.8486 146.77 17.7984 146.349 18.6177C145.928 19.4324 145.328 20.0686 144.55 20.5263C143.776 20.9794 142.856 21.206 141.79 21.206ZM141.804 18.9403C142.289 18.9403 142.694 18.803 143.019 18.5284C143.344 18.2492 143.589 17.8693 143.753 17.3887C143.923 16.9081 144.008 16.3612 144.008 15.7479C144.008 15.1345 143.923 14.5876 143.753 14.107C143.589 13.6264 143.344 13.2465 143.019 12.9673C142.694 12.6881 142.289 12.5485 141.804 12.5485C141.314 12.5485 140.902 12.6881 140.568 12.9673C140.238 13.2465 139.989 13.6264 139.82 14.107C139.655 14.5876 139.572 15.1345 139.572 15.7479C139.572 16.3612 139.655 16.9081 139.82 17.3887C139.989 17.8693 140.238 18.2492 140.568 18.5284C140.902 18.803 141.314 18.9403 141.804 18.9403ZM151.227 14.9034V21H148.302V10.4545H151.089V12.3151H151.213C151.446 11.7018 151.838 11.2166 152.387 10.8596C152.936 10.498 153.602 10.3172 154.385 10.3172C155.117 10.3172 155.756 10.4774 156.3 10.7978C156.845 11.1182 157.268 11.5759 157.571 12.1709C157.873 12.7614 158.024 13.4662 158.024 14.2855V21H155.099V14.8073C155.103 14.1619 154.939 13.6585 154.605 13.2969C154.27 12.9307 153.81 12.7476 153.225 12.7476C152.831 12.7476 152.483 12.8323 152.181 13.0017C151.884 13.171 151.65 13.4182 151.481 13.7431C151.316 14.0635 151.231 14.4503 151.227 14.9034ZM168.408 21.206C167.328 21.206 166.399 20.9771 165.621 20.5194C164.847 20.0571 164.252 19.4164 163.836 18.5971C163.424 17.7778 163.218 16.8349 163.218 15.7685C163.218 14.6883 163.426 13.7408 163.842 12.9261C164.264 12.1068 164.861 11.4684 165.634 11.0107C166.408 10.5484 167.328 10.3172 168.394 10.3172C169.314 10.3172 170.12 10.4843 170.811 10.8184C171.502 11.1525 172.049 11.6217 172.452 12.2259C172.855 12.83 173.077 13.5395 173.118 14.3542H170.358C170.28 13.8278 170.074 13.4044 169.74 13.084C169.41 12.7591 168.978 12.5966 168.442 12.5966C167.989 12.5966 167.593 12.7202 167.255 12.9673C166.92 13.2099 166.66 13.5646 166.472 14.0315C166.284 14.4983 166.19 15.0636 166.19 15.7273C166.19 16.4001 166.282 16.9722 166.465 17.4437C166.653 17.9151 166.916 18.2744 167.255 18.5215C167.593 18.7687 167.989 18.8923 168.442 18.8923C168.776 18.8923 169.076 18.8236 169.342 18.6863C169.612 18.549 169.834 18.3499 170.008 18.089C170.186 17.8235 170.303 17.5054 170.358 17.1347H173.118C173.072 17.9403 172.852 18.6497 172.459 19.263C172.07 19.8718 171.532 20.3478 170.845 20.6911C170.159 21.0343 169.346 21.206 168.408 21.206ZM177.417 21.1991C176.745 21.1991 176.145 21.0824 175.619 20.849C175.092 20.611 174.676 20.2608 174.369 19.7985C174.067 19.3317 173.916 18.7504 173.916 18.0547C173.916 17.4688 174.024 16.9768 174.239 16.5786C174.454 16.1804 174.747 15.86 175.117 15.6174C175.488 15.3748 175.909 15.1918 176.381 15.0682C176.857 14.9446 177.356 14.8576 177.877 14.8073C178.491 14.7432 178.985 14.6837 179.36 14.6288C179.736 14.5693 180.008 14.4823 180.177 14.3679C180.347 14.2535 180.431 14.0841 180.431 13.8598V13.8187C180.431 13.3838 180.294 13.0474 180.019 12.8094C179.749 12.5714 179.365 12.4524 178.866 12.4524C178.34 12.4524 177.921 12.5691 177.61 12.8026C177.298 13.0314 177.092 13.3198 176.992 13.6676L174.287 13.4479C174.424 12.8071 174.694 12.2533 175.097 11.7865C175.5 11.315 176.019 10.9534 176.655 10.7017C177.296 10.4454 178.038 10.3172 178.88 10.3172C179.466 10.3172 180.026 10.3859 180.562 10.5232C181.102 10.6605 181.58 10.8733 181.997 11.1617C182.418 11.45 182.75 11.8208 182.992 12.2739C183.235 12.7225 183.356 13.2603 183.356 13.8873V21H180.582V19.5376H180.5C180.331 19.8672 180.104 20.1578 179.82 20.4096C179.537 20.6567 179.196 20.8512 178.797 20.9931C178.399 21.1304 177.939 21.1991 177.417 21.1991ZM178.255 19.1806C178.685 19.1806 179.065 19.096 179.395 18.9266C179.724 18.7527 179.983 18.5193 180.171 18.2263C180.358 17.9334 180.452 17.6016 180.452 17.2308V16.1117C180.36 16.1712 180.235 16.2262 180.074 16.2765C179.919 16.3223 179.743 16.3658 179.546 16.407C179.349 16.4436 179.152 16.4779 178.955 16.5099C178.759 16.5374 178.58 16.5626 178.42 16.5855C178.077 16.6358 177.777 16.7159 177.52 16.8258C177.264 16.9356 177.065 17.0844 176.923 17.272C176.781 17.4551 176.71 17.6839 176.71 17.9586C176.71 18.3568 176.854 18.6611 177.143 18.8717C177.436 19.0777 177.806 19.1806 178.255 19.1806ZM193.819 13.4616L191.142 13.6264C191.096 13.3976 190.998 13.1916 190.847 13.0085C190.696 12.8209 190.496 12.6721 190.249 12.5623C190.007 12.4478 189.716 12.3906 189.377 12.3906C188.924 12.3906 188.542 12.4867 188.231 12.679C187.92 12.8666 187.764 13.1184 187.764 13.4342C187.764 13.6859 187.865 13.8988 188.066 14.0727C188.267 14.2466 188.613 14.3862 189.103 14.4915L191.011 14.8759C192.037 15.0865 192.801 15.4252 193.304 15.892C193.808 16.3589 194.06 16.9722 194.06 17.732C194.06 18.4231 193.856 19.0296 193.449 19.5514C193.046 20.0732 192.492 20.4805 191.787 20.7734C191.087 21.0618 190.279 21.206 189.364 21.206C187.968 21.206 186.855 20.9153 186.027 20.334C185.203 19.7482 184.72 18.9518 184.578 17.9448L187.455 17.7938C187.542 18.2195 187.752 18.5444 188.087 18.7687C188.421 18.9884 188.849 19.0982 189.37 19.0982C189.883 19.0982 190.295 18.9998 190.606 18.803C190.922 18.6016 191.082 18.343 191.087 18.0272C191.082 17.7618 190.97 17.5443 190.75 17.375C190.531 17.2011 190.192 17.0683 189.734 16.9768L187.908 16.6129C186.878 16.407 186.112 16.05 185.608 15.5419C185.109 15.0339 184.86 14.3862 184.86 13.599C184.86 12.9216 185.043 12.338 185.409 11.8482C185.78 11.3585 186.299 10.9809 186.968 10.7154C187.64 10.45 188.428 10.3172 189.329 10.3172C190.661 10.3172 191.709 10.5987 192.474 11.1617C193.243 11.7247 193.691 12.4913 193.819 13.4616ZM200.127 21.206C199.042 21.206 198.109 20.9863 197.326 20.5469C196.548 20.1029 195.948 19.4759 195.527 18.6657C195.106 17.851 194.896 16.8875 194.896 15.7753C194.896 14.6906 195.106 13.7386 195.527 12.9193C195.948 12.1 196.541 11.4615 197.305 11.0038C198.074 10.5461 198.976 10.3172 200.01 10.3172C200.706 10.3172 201.354 10.4294 201.953 10.6536C202.558 10.8733 203.084 11.2052 203.532 11.6491C203.986 12.0931 204.338 12.6515 204.59 13.3243C204.842 13.9926 204.967 14.7753 204.967 15.6723V16.4756H196.063V14.6631H202.214C202.214 14.242 202.123 13.869 201.94 13.544C201.757 13.2191 201.503 12.965 201.178 12.782C200.857 12.5943 200.484 12.5005 200.059 12.5005C199.615 12.5005 199.221 12.6035 198.878 12.8094C198.539 13.0108 198.273 13.2831 198.081 13.6264C197.889 13.9651 197.791 14.3427 197.786 14.7592V16.4825C197.786 17.0043 197.882 17.4551 198.074 17.835C198.271 18.2149 198.548 18.5078 198.905 18.7138C199.262 18.9197 199.686 19.0227 200.175 19.0227C200.5 19.0227 200.798 18.977 201.068 18.8854C201.338 18.7939 201.569 18.6566 201.761 18.4735C201.953 18.2904 202.1 18.0661 202.201 17.8007L204.906 17.9792C204.768 18.6291 204.487 19.1967 204.061 19.6818C203.64 20.1624 203.095 20.5377 202.427 20.8078C201.763 21.0732 200.997 21.206 200.127 21.206Z" fill="#1A191F"/>
<path d="M41.6949 37.2V29.0545H42.9239V32.9443H43.0233L46.4398 29.0545H47.987L44.7018 32.7216L47.9989 37.2H46.5194L43.8864 33.5608L42.9239 34.6665V37.2H41.6949ZM50.8258 37.3233C50.2531 37.3233 49.7533 37.192 49.3264 36.9295C48.8995 36.667 48.5681 36.2998 48.3321 35.8278C48.0961 35.3559 47.9781 34.8044 47.9781 34.1733C47.9781 33.5396 48.0961 32.9854 48.3321 32.5108C48.5681 32.0362 48.8995 31.6676 49.3264 31.4051C49.7533 31.1426 50.2531 31.0114 50.8258 31.0114C51.3986 31.0114 51.8984 31.1426 52.3253 31.4051C52.7522 31.6676 53.0836 32.0362 53.3196 32.5108C53.5556 32.9854 53.6736 33.5396 53.6736 34.1733C53.6736 34.8044 53.5556 35.3559 53.3196 35.8278C53.0836 36.2998 52.7522 36.667 52.3253 36.9295C51.8984 37.192 51.3986 37.3233 50.8258 37.3233ZM50.8298 36.325C51.201 36.325 51.5086 36.2269 51.7525 36.0307C51.9965 35.8345 52.1768 35.5733 52.2935 35.2472C52.4128 34.921 52.4724 34.5617 52.4724 34.1693C52.4724 33.7795 52.4128 33.4216 52.2935 33.0955C52.1768 32.7667 51.9965 32.5028 51.7525 32.304C51.5086 32.1051 51.201 32.0057 50.8298 32.0057C50.456 32.0057 50.1457 32.1051 49.8991 32.304C49.6552 32.5028 49.4736 32.7667 49.3542 33.0955C49.2376 33.4216 49.1792 33.7795 49.1792 34.1693C49.1792 34.5617 49.2376 34.921 49.3542 35.2472C49.4736 35.5733 49.6552 35.8345 49.8991 36.0307C50.1457 36.2269 50.456 36.325 50.8298 36.325ZM54.665 37.2V31.0909H55.8065V32.0852H55.882C56.0093 31.7485 56.2174 31.486 56.5065 31.2977C56.7955 31.1068 57.1415 31.0114 57.5445 31.0114C57.9529 31.0114 58.2949 31.1068 58.5707 31.2977C58.8491 31.4886 59.0546 31.7511 59.1871 32.0852H59.2508C59.3966 31.7591 59.6286 31.4992 59.9468 31.3057C60.265 31.1095 60.6441 31.0114 61.0843 31.0114C61.6385 31.0114 62.0905 31.185 62.4405 31.5324C62.7932 31.8797 62.9695 32.4034 62.9695 33.1034V37.2H61.7803V33.2148C61.7803 32.8011 61.6676 32.5015 61.4423 32.3159C61.2169 32.1303 60.9477 32.0375 60.6349 32.0375C60.2477 32.0375 59.9468 32.1568 59.732 32.3955C59.5173 32.6314 59.4099 32.935 59.4099 33.3063V37.2H58.2246V33.1392C58.2246 32.8078 58.1212 32.5413 57.9144 32.3398C57.7076 32.1383 57.4385 32.0375 57.107 32.0375C56.8816 32.0375 56.6735 32.0972 56.4826 32.2165C56.2943 32.3331 56.1419 32.4962 56.0252 32.7057C55.9112 32.9152 55.8542 33.1578 55.8542 33.4335V37.2H54.665ZM64.3229 37.2V29.0545H67.2263C67.86 29.0545 68.385 29.1699 68.8013 29.4006C69.2176 29.6313 69.5291 29.9468 69.7359 30.3472C69.9428 30.7449 70.0462 31.193 70.0462 31.6915C70.0462 32.1926 69.9414 32.6434 69.732 33.0438C69.5251 33.4415 69.2123 33.757 68.7933 33.9903C68.377 34.221 67.8534 34.3364 67.2223 34.3364H65.2257V33.2943H67.1109C67.5113 33.2943 67.8361 33.2254 68.0854 33.0875C68.3346 32.947 68.5176 32.7561 68.6342 32.5148C68.7509 32.2735 68.8092 31.9991 68.8092 31.6915C68.8092 31.3839 68.7509 31.1108 68.6342 30.8722C68.5176 30.6335 68.3333 30.4466 68.0814 30.3114C67.8322 30.1761 67.5034 30.1085 67.095 30.1085H65.5518V37.2H64.3229ZM74.9254 34.6665V31.0909H76.1185V37.2H74.9492V36.142H74.8856C74.7451 36.4682 74.5197 36.74 74.2095 36.9574C73.9019 37.1722 73.5187 37.2795 73.06 37.2795C72.6676 37.2795 72.3203 37.1934 72.018 37.021C71.7184 36.846 71.4824 36.5875 71.31 36.2455C71.1403 35.9034 71.0555 35.4805 71.0555 34.9767V31.0909H72.2447V34.8335C72.2447 35.2498 72.36 35.5813 72.5907 35.8278C72.8214 36.0744 73.121 36.1977 73.4896 36.1977C73.7123 36.1977 73.9337 36.142 74.1538 36.0307C74.3765 35.9193 74.5608 35.7509 74.7066 35.5256C74.8551 35.3002 74.928 35.0138 74.9254 34.6665ZM77.4759 37.2V29.0545H78.6651V32.0813H78.7367C78.8056 31.954 78.905 31.8068 79.035 31.6398C79.1649 31.4727 79.3452 31.3269 79.5759 31.2023C79.8066 31.075 80.1115 31.0114 80.4906 31.0114C80.9838 31.0114 81.424 31.136 81.8111 31.3852C82.1982 31.6345 82.5018 31.9938 82.7219 32.4631C82.9446 32.9324 83.056 33.4972 83.056 34.1574C83.056 34.8176 82.9459 35.3837 82.7259 35.8557C82.5058 36.325 82.2035 36.6869 81.8191 36.9415C81.4346 37.1934 80.9958 37.3193 80.5026 37.3193C80.1314 37.3193 79.8278 37.257 79.5918 37.1324C79.3584 37.0078 79.1755 36.8619 79.0429 36.6949C78.9103 36.5278 78.8083 36.3794 78.7367 36.2494H78.6372V37.2H77.4759ZM78.6412 34.1455C78.6412 34.575 78.7035 34.9515 78.8281 35.275C78.9528 35.5985 79.1331 35.8517 79.3691 36.0347C79.605 36.215 79.8941 36.3051 80.2361 36.3051C80.5914 36.3051 80.8884 36.211 81.127 36.0227C81.3656 35.8318 81.5459 35.5733 81.6679 35.2472C81.7925 34.921 81.8548 34.5538 81.8548 34.1455C81.8548 33.7424 81.7939 33.3805 81.6719 33.0597C81.5526 32.7388 81.3723 32.4856 81.131 32.3C80.8923 32.1144 80.5941 32.0216 80.2361 32.0216C79.8914 32.0216 79.5997 32.1104 79.3611 32.2881C79.1251 32.4657 78.9461 32.7136 78.8242 33.0318C78.7022 33.35 78.6412 33.7212 78.6412 34.1455ZM85.2446 29.0545V37.2H84.0554V29.0545H85.2446ZM86.5084 37.2V31.0909H87.6976V37.2H86.5084ZM87.109 30.1483C86.9022 30.1483 86.7245 30.0794 86.576 29.9415C86.4302 29.8009 86.3573 29.6339 86.3573 29.4403C86.3573 29.2441 86.4302 29.0771 86.576 28.9392C86.7245 28.7987 86.9022 28.7284 87.109 28.7284C87.3158 28.7284 87.4921 28.7987 87.638 28.9392C87.7864 29.0771 87.8607 29.2441 87.8607 29.4403C87.8607 29.6339 87.7864 29.8009 87.638 29.9415C87.4921 30.0794 87.3158 30.1483 87.109 30.1483ZM91.5348 37.3233C90.9435 37.3233 90.4344 37.1894 90.0075 36.9216C89.5833 36.6511 89.2571 36.2786 89.0291 35.804C88.8011 35.3294 88.687 34.7858 88.687 34.1733C88.687 33.5528 88.8037 33.0053 89.037 32.5307C89.2704 32.0534 89.5992 31.6809 90.0234 31.4131C90.4477 31.1453 90.9475 31.0114 91.5228 31.0114C91.9869 31.0114 92.4005 31.0975 92.7638 31.2699C93.127 31.4396 93.42 31.6782 93.6427 31.9858C93.8681 32.2934 94.002 32.6527 94.0444 33.0636H92.887C92.8234 32.7773 92.6776 32.5307 92.4495 32.3239C92.2242 32.117 91.9219 32.0136 91.5427 32.0136C91.2113 32.0136 90.921 32.1011 90.6717 32.2761C90.4251 32.4485 90.2329 32.6951 90.095 33.0159C89.9571 33.3341 89.8882 33.7106 89.8882 34.1455C89.8882 34.5909 89.9558 34.9754 90.091 35.2989C90.2263 35.6223 90.4172 35.8729 90.6638 36.0506C90.913 36.2282 91.206 36.317 91.5427 36.317C91.7681 36.317 91.9723 36.2759 92.1552 36.1938C92.3408 36.1089 92.4959 35.9883 92.6206 35.8318C92.7478 35.6754 92.8367 35.4871 92.887 35.267H94.0444C94.002 35.6621 93.8734 36.0148 93.6586 36.325C93.4439 36.6352 93.1562 36.8792 92.7956 37.0568C92.4376 37.2345 92.0174 37.3233 91.5348 37.3233Z" fill="#403F4C"/>
<path d="M2 33.9358V20.4136C2 19.6209 2.35793 18.8707 2.974 18.372L14.1073 9.35932C15.0847 8.56807 16.4858 8.58058 17.4489 9.38914L28.1504 18.3731C28.7449 18.8722 29.0882 19.6087 29.0882 20.3849V33.9358C29.0882 35.3865 27.9122 36.5626 26.4615 36.5626H4.62674C3.17603 36.5626 2 35.3865 2 33.9358Z" stroke="#00006B" stroke-width="2.62674" stroke-linecap="square" stroke-linejoin="round"/>
<path d="M5.61169 29.339V15.8168C5.61169 15.0241 5.96962 14.2739 6.58569 13.7752L17.7189 4.76253C18.6964 3.97128 20.0975 3.98379 21.0606 4.79235L31.7621 13.7763C32.3566 14.2754 32.6999 15.0119 32.6999 15.7881V29.339C32.6999 30.7897 31.5239 31.9658 30.0732 31.9658H8.23843C6.78773 31.9658 5.61169 30.7897 5.61169 29.339Z" fill="#00006B"/>
<path d="M16.6184 23.7709L13.4236 20.5761L12.3357 21.6564L16.6184 25.9391L25.812 16.7455L24.7317 15.6652L16.6184 23.7709Z" fill="white"/>
</svg>
