<svg width="20" height="20" viewBox="0 0 20 20" fill="none" xmlns="http://www.w3.org/2000/svg">
<path fill-rule="evenodd" clip-rule="evenodd" d="M11.5122 2.49503C11.4828 5.4076 11.468 7.76051 11.4676 10.0905V10.2715C11.468 12.8147 11.4857 15.3473 11.5208 18.5679C11.5273 19.1596 11.0529 19.6444 10.4612 19.6509C9.86946 19.6573 9.38456 19.1829 9.37812 18.5911C9.36249 17.159 9.3503 15.8623 9.34155 14.6399H7.72806C5.86269 14.6399 4.07373 13.8989 2.75472 12.5799C1.43572 11.2609 0.694702 9.47191 0.694702 7.60655C0.694702 5.74118 1.43572 3.95223 2.75472 2.63321C4.01955 1.36839 5.73165 0.587615 7.5467 0.538682C11.0066 0.255294 13.5667 0.30951 18.2938 0.574887C18.8845 0.608054 19.3367 1.11388 19.3034 1.70468C19.2702 2.29548 18.7644 2.74754 18.1737 2.71437C17.4379 2.67307 16.7574 2.63705 16.1199 2.60674C16.3187 8.59464 16.3187 12.2721 16.0857 18.6189C16.0639 19.2101 15.5669 19.672 14.9757 19.6503C14.3842 19.6286 13.9225 19.1316 13.9442 18.5401C14.1773 12.1922 14.1754 8.55581 13.9731 2.52238C13.0965 2.49703 12.2923 2.48735 11.5122 2.49503Z" fill="#403F4C"/>
</svg>
