<svg width="16" height="16" viewBox="0 0 16 16" fill="none" xmlns="http://www.w3.org/2000/svg">
<path d="M1.72494 15.0865H14.2749C15.5583 15.0865 16.3583 13.6948 15.7166 12.5865L9.4416 1.74479C8.79994 0.63646 7.19994 0.63646 6.55827 1.74479L0.283272 12.5865C-0.358395 13.6948 0.441605 15.0865 1.72494 15.0865ZM7.99994 9.25313C7.5416 9.25313 7.1666 8.87813 7.1666 8.41979V6.75313C7.1666 6.29479 7.5416 5.91979 7.99994 5.91979C8.45827 5.91979 8.83327 6.29479 8.83327 6.75313V8.41979C8.83327 8.87813 8.45827 9.25313 7.99994 9.25313ZM8.83327 12.5865H7.1666V10.9198H8.83327V12.5865Z" fill="#FF4A4A"/>
</svg>
