<svg width="16" height="16" viewBox="0 0 16 16" fill="none" xmlns="http://www.w3.org/2000/svg">
<path d="M5.5 15.5H2.16667C1.25 15.5 0.5 14.75 0.5 13.8333V2.16667C0.5 1.25 1.25 0.5 2.16667 0.5H5.5C6.41667 0.5 7.16667 1.25 7.16667 2.16667V13.8333C7.16667 14.75 6.41667 15.5 5.5 15.5ZM10.5 15.5H13.8333C14.75 15.5 15.5 14.75 15.5 13.8333V9.66667C15.5 8.75 14.75 8 13.8333 8H10.5C9.58333 8 8.83333 8.75 8.83333 9.66667V13.8333C8.83333 14.75 9.58333 15.5 10.5 15.5ZM15.5 4.66667V2.16667C15.5 1.25 14.75 0.5 13.8333 0.5H10.5C9.58333 0.5 8.83333 1.25 8.83333 2.16667V4.66667C8.83333 5.58333 9.58333 6.33333 10.5 6.33333H13.8333C14.75 6.33333 15.5 5.58333 15.5 4.66667Z" fill="#00006B"/>
</svg>
