<?xml version="1.0" standalone="no"?>
<!DOCTYPE svg PUBLIC "-//W3C//DTD SVG 20010904//EN"
 "http://www.w3.org/TR/2001/REC-SVG-20010904/DTD/svg10.dtd">
<svg version="1.0" xmlns="http://www.w3.org/2000/svg"
 width="83.000000pt" height="75.000000pt" viewBox="0 0 83.000000 75.000000"
 preserveAspectRatio="xMidYMid meet">

<g transform="translate(0.000000,75.000000) scale(0.100000,-0.100000)"
fill="#00006b" stroke="none">
<path d="M361 714 c-14 -18 -21 -41 -21 -70 l0 -44 -65 0 c-104 0 -105 -1
-105 -225 0 -172 1 -186 20 -205 19 -19 33 -20 294 -20 l275 0 20 26 c19 25
21 40 21 199 0 158 -2 174 -20 198 -18 23 -29 26 -88 29 l-67 3 -3 50 c-5 78
-17 85 -138 85 -99 0 -103 -1 -123 -26z m189 -79 l0 -35 -65 0 -65 0 0 35 0
35 65 0 65 0 0 -35z"/>
<path d="M36 444 c-3 -9 -6 -98 -6 -198 0 -170 1 -185 21 -210 l20 -26 284 0
c302 0 315 2 300 50 -6 19 -13 20 -276 20 l-269 0 0 178 c0 125 -4 182 -12
190 -17 17 -55 15 -62 -4z"/>
</g>
</svg>
