<svg width="16" height="16" viewBox="0 0 16 16" fill="none" xmlns="http://www.w3.org/2000/svg">
<path fill-rule="evenodd" clip-rule="evenodd" d="M14.0373 15.6533C14.4835 16.0996 15.2072 16.0996 15.6535 15.6533C16.0999 15.207 16.0999 14.4834 15.6535 14.0371L9.62224 8.0059L15.6654 1.96287C16.1117 1.51657 16.1117 0.792943 15.6654 0.346628C15.2191 -0.0996882 14.4954 -0.0996919 14.0491 0.34662L8.00599 6.38968L1.95099 0.334733C1.50467 -0.111577 0.781052 -0.111578 0.334737 0.334733C-0.111579 0.781045 -0.111579 1.50466 0.334737 1.95097L6.38974 8.0059L0.346571 14.049C-0.0997449 14.4953 -0.0997486 15.2189 0.346563 15.6652C0.792874 16.1116 1.51649 16.1116 1.96281 15.6652L8.00599 9.62214L14.0373 15.6533Z" fill="#403F4C"/>
</svg>
