<svg width="18" height="14" viewBox="0 0 18 14" fill="none" xmlns="http://www.w3.org/2000/svg">
<path d="M15.6666 1.99967H8.99996L7.82496 0.824675C7.50829 0.508008 7.08329 0.333008 6.64163 0.333008H2.33329C1.41663 0.333008 0.674959 1.08301 0.674959 1.99967L0.666626 11.9997C0.666626 12.9163 1.41663 13.6663 2.33329 13.6663H15.6666C16.5833 13.6663 17.3333 12.9163 17.3333 11.9997V3.66634C17.3333 2.74967 16.5833 1.99967 15.6666 1.99967ZM4.93329 9.74134L3.75829 8.56634C3.43329 8.24134 3.43329 7.71634 3.75829 7.39134C4.08329 7.06634 4.60829 7.06634 4.93329 7.39134L5.52496 7.98301L7.88329 5.62467C8.20829 5.29967 8.73329 5.29967 9.05829 5.62467C9.38329 5.94967 9.38329 6.47467 9.05829 6.79967L6.10829 9.74967C5.78329 10.0663 5.25829 10.0663 4.93329 9.74134ZM13.5083 7.83301L14.2416 8.56634C14.5666 8.89134 14.5666 9.41634 14.2416 9.74134C13.9166 10.0663 13.3916 10.0663 13.0666 9.74134L12.3333 9.00801L11.6 9.74134C11.275 10.0663 10.75 10.0663 10.425 9.74134C10.1 9.41634 10.1 8.89134 10.425 8.56634L11.1583 7.83301L10.425 7.09967C10.1 6.77467 10.1 6.24967 10.425 5.92467C10.75 5.59967 11.275 5.59967 11.6 5.92467L12.3333 6.65801L13.0666 5.92467C13.3916 5.59967 13.9166 5.59967 14.2416 5.92467C14.5666 6.24967 14.5666 6.77467 14.2416 7.09967L13.5083 7.83301Z" fill="#1A191F"/>
</svg>
