<svg width="20" height="12" viewBox="0 0 20 12" fill="none" xmlns="http://www.w3.org/2000/svg">
<path d="M14.3875 1.00398C14.0625 0.678981 13.5375 0.678981 13.2125 1.00398L8.51248 5.70398L9.68748 6.87898L14.3875 2.17065C14.7042 1.85398 14.7042 1.32065 14.3875 1.00398ZM17.9208 0.995648L9.68748 9.22898L6.78748 6.33731C6.46248 6.01231 5.93748 6.01231 5.61248 6.33731C5.28748 6.66231 5.28748 7.18731 5.61248 7.51231L9.09582 10.9956C9.42082 11.3206 9.94582 11.3206 10.2708 10.9956L19.0958 2.17898C19.4208 1.85398 19.4208 1.32898 19.0958 1.00398H19.0875C18.7708 0.670648 18.2458 0.670648 17.9208 0.995648ZM0.90415 7.52065L4.38748 11.004C4.71248 11.329 5.23748 11.329 5.56248 11.004L6.14582 10.4206L2.07915 6.33731C1.75415 6.01231 1.22915 6.01231 0.90415 6.33731C0.57915 6.66231 0.57915 7.19565 0.90415 7.52065Z" fill="#1A191F"/>
</svg>
