<svg width="20" height="16" viewBox="0 0 20 16" fill="none" xmlns="http://www.w3.org/2000/svg">
<path d="M10 3.39134C12.3 3.39134 14.1667 5.25801 14.1667 7.55801C14.1667 7.98301 14.0834 8.39134 13.9667 8.77467L16.5167 11.3247C17.675 10.2997 18.5917 9.01634 19.1667 7.54967C17.725 3.89967 14.1667 1.30801 10 1.30801C8.94171 1.30801 7.92504 1.47467 6.96671 1.78301L8.77504 3.59134C9.16671 3.47467 9.57504 3.39134 10 3.39134ZM2.25837 0.608008C1.93337 0.933008 1.93337 1.45801 2.25837 1.78301L3.90004 3.42467C2.55004 4.49967 1.47504 5.91634 0.833374 7.55801C2.27504 11.2163 5.83337 13.808 10 13.808C11.2667 13.808 12.475 13.558 13.5917 13.1247L15.8584 15.3913C16.1834 15.7163 16.7084 15.7163 17.0334 15.3913C17.3584 15.0663 17.3584 14.5413 17.0334 14.2163L3.44171 0.608008C3.11671 0.283008 2.58337 0.283008 2.25837 0.608008ZM10 11.7247C7.70004 11.7247 5.83337 9.85801 5.83337 7.55801C5.83337 6.91634 5.98337 6.30801 6.24171 5.77467L7.55004 7.08301C7.52504 7.23301 7.50004 7.39134 7.50004 7.55801C7.50004 8.94134 8.61671 10.058 10 10.058C10.1667 10.058 10.3167 10.033 10.475 9.99967L11.7834 11.308C11.2417 11.5747 10.6417 11.7247 10 11.7247ZM12.475 7.28301C12.35 6.11634 11.4334 5.20801 10.275 5.08301L12.475 7.28301Z" fill="white"/>
</svg>
