<svg width="12" height="12" viewBox="0 0 12 12" fill="none" xmlns="http://www.w3.org/2000/svg">
<path d="M7.44667 0H1.33333C0.6 0 0 0.6 0 1.33333V10.6667C0 11.4 0.6 12 1.33333 12H10.6667C11.4 12 12 11.4 12 10.6667V4.55333C12 4.2 11.86 3.86 11.6067 3.61333L8.38667 0.393333C8.14 0.14 7.8 0 7.44667 0ZM3.33333 8H8.66667C9.03333 8 9.33333 8.3 9.33333 8.66667C9.33333 9.03333 9.03333 9.33333 8.66667 9.33333H3.33333C2.96667 9.33333 2.66667 9.03333 2.66667 8.66667C2.66667 8.3 2.96667 8 3.33333 8ZM3.33333 5.33333H8.66667C9.03333 5.33333 9.33333 5.63333 9.33333 6C9.33333 6.36667 9.03333 6.66667 8.66667 6.66667H3.33333C2.96667 6.66667 2.66667 6.36667 2.66667 6C2.66667 5.63333 2.96667 5.33333 3.33333 5.33333ZM3.33333 2.66667H6.66667C7.03333 2.66667 7.33333 2.96667 7.33333 3.33333C7.33333 3.7 7.03333 4 6.66667 4H3.33333C2.96667 4 2.66667 3.7 2.66667 3.33333C2.66667 2.96667 2.96667 2.66667 3.33333 2.66667Z" fill="#00006B"/>
</svg>
