<svg width="18" height="14" viewBox="0 0 18 14" fill="none" xmlns="http://www.w3.org/2000/svg">
<path d="M15.6667 2H9.00002L7.82502 0.825003C7.50835 0.508336 7.08335 0.333336 6.64169 0.333336H2.33335C1.41669 0.333336 0.67502 1.08334 0.67502 2L0.666687 12C0.666687 12.9167 1.41669 13.6667 2.33335 13.6667H15.6667C16.5834 13.6667 17.3334 12.9167 17.3334 12V3.66667C17.3334 2.75 16.5834 2 15.6667 2ZM9.83335 10.3333H4.83335C4.37502 10.3333 4.00002 9.95834 4.00002 9.5C4.00002 9.04167 4.37502 8.66667 4.83335 8.66667H9.83335C10.2917 8.66667 10.6667 9.04167 10.6667 9.5C10.6667 9.95834 10.2917 10.3333 9.83335 10.3333ZM13.1667 7H4.83335C4.37502 7 4.00002 6.625 4.00002 6.16667C4.00002 5.70834 4.37502 5.33334 4.83335 5.33334H13.1667C13.625 5.33334 14 5.70834 14 6.16667C14 6.625 13.625 7 13.1667 7Z" fill="#1A191F"/>
</svg>
