<!-- <?xml version="1.0" standalone="no"?>
<!DOCTYPE svg PUBLIC "-//W3C//DTD SVG 20010904//EN"
 "http://www.w3.org/TR/2001/REC-SVG-20010904/DTD/svg10.dtd"> -->
<svg version="1.0" xmlns="http://www.w3.org/2000/svg"
 width="75.000000pt" height="75.000000pt" viewBox="0 0 75.000000 75.000000"
 preserveAspectRatio="xMidYMid meet">

<g transform="translate(0.000000,75.000000) scale(0.100000,-0.100000)"
fill="#000000" stroke="none">
<path d="M38 709 c-11 -6 -18 -22 -18 -42 0 -64 -13 -62 345 -65 218 -2 331 1
345 8 28 15 28 85 1 100 -26 14 -650 13 -673 -1z"/>
<path d="M32 418 c-16 -16 -15 -73 2 -87 9 -8 89 -11 271 -9 l258 3 9 26 c5
16 5 37 -1 52 l-11 27 -258 0 c-187 0 -261 -3 -270 -12z"/>
<path d="M50 143 c-22 -9 -30 -24 -30 -60 0 -22 6 -36 19 -43 26 -13 326 -13
352 0 14 8 19 21 19 51 0 33 -4 41 -26 49 -27 10 -308 13 -334 3z"/>
</g>
</svg>
