<svg width="16" height="10" viewBox="0 0 16 10" fill="none" xmlns="http://www.w3.org/2000/svg">
<path d="M14.6667 4.16667H1.33333C0.875 4.16667 0.5 4.54167 0.5 5C0.5 5.45833 0.875 5.83333 1.33333 5.83333H14.6667C15.125 5.83333 15.5 5.45833 15.5 5C15.5 4.54167 15.125 4.16667 14.6667 4.16667ZM1.33333 10H9.66667C10.125 10 10.5 9.625 10.5 9.16667C10.5 8.70833 10.125 8.33333 9.66667 8.33333H1.33333C0.875 8.33333 0.5 8.70833 0.5 9.16667C0.5 9.625 0.875 10 1.33333 10ZM14.6667 0H1.33333C0.875 0 0.5 0.375 0.5 0.833333V0.841667C0.5 1.3 0.875 1.675 1.33333 1.675H14.6667C15.125 1.675 15.5 1.3 15.5 0.841667V0.833333C15.5 0.375 15.125 0 14.6667 0Z" fill="#1A191F"/>
</svg>
