<svg width="16" height="14" viewBox="0 0 16 14" fill="none" xmlns="http://www.w3.org/2000/svg">
<path d="M15.236 4.725L15.2443 4.675C15.3777 4.15834 14.9943 3.66667 14.4693 3.66667H12.1693L12.7527 1.34167C12.8777 0.825003 12.4943 0.333336 11.9693 0.333336C11.5943 0.333336 11.2777 0.583336 11.186 0.941669L10.5027 3.66667H7.16933L7.75267 1.34167C7.87767 0.825003 7.49433 0.333336 6.96933 0.333336C6.59433 0.333336 6.27767 0.583336 6.186 0.941669L5.50267 3.66667H2.80267C2.42767 3.66667 2.10267 3.91667 2.01933 4.275L2.00267 4.325C1.87767 4.84167 2.261 5.33334 2.786 5.33334H5.086L4.25267 8.66667H1.55267C1.17767 8.66667 0.861 8.91667 0.769333 9.275L0.752666 9.325C0.627666 9.84167 1.011 10.3333 1.536 10.3333H3.836L3.25267 12.6583C3.12767 13.175 3.511 13.6667 4.036 13.6667C4.411 13.6667 4.72767 13.4167 4.81933 13.0583L5.50267 10.3333H8.836L8.25267 12.6583C8.12767 13.175 8.511 13.6667 9.036 13.6667C9.411 13.6667 9.72767 13.4167 9.81933 13.0583L10.5027 10.3333H13.2027C13.5777 10.3333 13.8943 10.0833 13.986 9.725L13.9943 9.675C14.1193 9.16667 13.736 8.66667 13.211 8.66667H10.9193L11.7527 5.33334H14.4527C14.8277 5.33334 15.1527 5.08334 15.236 4.725ZM9.25267 8.66667H5.91933L6.75267 5.33334H10.086L9.25267 8.66667Z" fill="#1A191F"/>
</svg>
