<svg width="20" height="18" viewBox="0 0 20 18" fill="none" xmlns="http://www.w3.org/2000/svg">
<path d="M16.9977 6.62761V2.32761C16.9977 1.77761 16.5477 1.32761 15.9977 1.32761H14.9977C14.4477 1.32761 13.9977 1.77761 13.9977 2.32761V3.92761L10.6677 0.927607C10.2877 0.587607 9.70766 0.587607 9.32766 0.927607L0.967657 8.45761C0.627657 8.75761 0.837657 9.32761 1.29766 9.32761H2.99766V16.3276C2.99766 16.8776 3.44766 17.3276 3.99766 17.3276H6.99766C7.54766 17.3276 7.99766 16.8776 7.99766 16.3276V11.3276H11.9977V16.3276C11.9977 16.8776 12.4477 17.3276 12.9977 17.3276H15.9977C16.5477 17.3276 16.9977 16.8776 16.9977 16.3276V9.32761H18.6977C19.1577 9.32761 19.3777 8.75761 19.0277 8.45761L16.9977 6.62761ZM7.99766 7.32761C7.99766 6.22761 8.89766 5.32761 9.99766 5.32761C11.0977 5.32761 11.9977 6.22761 11.9977 7.32761H7.99766Z" fill="white"/>
</svg>
