<svg width="16" height="14" viewBox="0 0 16 14" fill="none" xmlns="http://www.w3.org/2000/svg">
<path d="M13.8317 7.27292H15.2484C15.6317 7.27292 15.815 6.79792 15.5234 6.54792L8.55671 0.272925C8.24004 -0.0104085 7.75671 -0.0104085 7.44004 0.272925L0.473373 6.54792C0.190039 6.79792 0.365039 7.27292 0.748373 7.27292H2.16504V13.1063C2.16504 13.5646 2.54004 13.9396 2.99837 13.9396C3.45671 13.9396 3.83171 13.5646 3.83171 13.1063V12.2729H12.165V13.1063C12.165 13.5646 12.54 13.9396 12.9984 13.9396C13.4567 13.9396 13.8317 13.5646 13.8317 13.1063V7.27292ZM4.00671 5.60626H11.99L12.165 5.76459V7.27292H3.83171V5.76459L4.00671 5.60626ZM10.14 3.93959H5.85671L7.99837 2.01459L10.14 3.93959ZM3.83171 10.6063V8.93959H12.165V10.6063H3.83171Z" fill="#403F4C"/>
</svg>
