<svg width="16" height="14" viewBox="0 0 16 14" fill="none" xmlns="http://www.w3.org/2000/svg">
<path d="M8.83567 12.2729H7.16901V10.6062H8.83567V12.2729ZM5.50234 9.77292V13.1062C5.50234 13.5646 5.87734 13.9396 6.33567 13.9396H9.66901C10.1273 13.9396 10.5023 13.5646 10.5023 13.1062V9.77292C10.5023 9.31458 10.1273 8.93958 9.66901 8.93958H6.33567C5.87734 8.93958 5.50234 9.31458 5.50234 9.77292ZM13.8357 5.02292V1.43958C13.8357 0.98125 13.4607 0.60625 13.0023 0.60625H12.169C11.7107 0.60625 11.3357 0.98125 11.3357 1.43958V2.77292L8.56067 0.272916C8.24401 -0.0104171 7.76067 -0.0104171 7.44401 0.272916L0.47734 6.54792C0.194007 6.79792 0.369007 7.27292 0.75234 7.27292H1.84401C2.05234 7.27292 2.25234 7.19792 2.40234 7.05625L8.00234 2.01458L13.594 7.05625C13.7523 7.19792 13.9523 7.27292 14.1523 7.27292H15.244C15.6273 7.27292 15.8107 6.79792 15.519 6.54792L13.8357 5.02292Z" fill="#1A191F"/>
</svg>
