<svg width="20" height="16" viewBox="0 0 20 16" fill="none" xmlns="http://www.w3.org/2000/svg">
<path d="M19.7961 4.53122C19.7961 3.98122 19.3461 3.53122 18.7961 3.53122H11.7961C11.2461 3.53122 10.7961 3.98122 10.7961 4.53122C10.7961 5.08122 11.2461 5.53122 11.7961 5.53122H18.7961C19.3461 5.53122 19.7961 5.08122 19.7961 4.53122ZM10.7961 12.5312C10.7961 13.0812 11.2461 13.5312 11.7961 13.5312H18.7961C19.3461 13.5312 19.7961 13.0812 19.7961 12.5312C19.7961 11.9812 19.3461 11.5312 18.7961 11.5312H11.7961C11.2461 11.5312 10.7961 11.9812 10.7961 12.5312ZM8.26611 1.16122C8.65611 1.55122 8.65611 2.18122 8.26611 2.57122L4.03611 6.82122C3.64611 7.21122 3.01611 7.21122 2.61611 6.82122L0.496113 4.69122C0.106113 4.30122 0.106113 3.67122 0.496113 3.28122C0.886113 2.89122 1.51611 2.89122 1.90611 3.28122L3.32611 4.70122L6.86611 1.16122C7.24611 0.781221 7.88611 0.781221 8.26611 1.16122ZM8.27611 9.17122C8.66611 9.56122 8.66611 10.1912 8.27611 10.5812L4.04611 14.8312C3.65611 15.2212 3.02611 15.2212 2.62611 14.8312L0.496113 12.6912C0.106113 12.3012 0.106113 11.6712 0.496113 11.2812C0.886113 10.8912 1.51611 10.8912 1.90611 11.2812L3.32611 12.7012L6.86611 9.16122C7.24611 8.78122 7.88611 8.78122 8.27611 9.17122Z" fill="#4F2F11"/>
</svg>
