<svg width="14" height="18" viewBox="0 0 14 18" fill="none" xmlns="http://www.w3.org/2000/svg">
<path d="M6.99998 0.801041C3.49998 0.801041 0.333313 3.48437 0.333313 7.63437C0.333313 10.2844 2.37498 13.401 6.44998 16.9927C6.76665 17.2677 7.24165 17.2677 7.55831 16.9927C11.625 13.401 13.6666 10.2844 13.6666 7.63437C13.6666 3.48437 10.5 0.801041 6.99998 0.801041ZM6.99998 9.13437C6.08331 9.13437 5.33331 8.38437 5.33331 7.46771C5.33331 6.55104 6.08331 5.80104 6.99998 5.80104C7.91665 5.80104 8.66665 6.55104 8.66665 7.46771C8.66665 8.38437 7.91665 9.13437 6.99998 9.13437Z" fill="#1A191F"/>
</svg>
