<svg width="20" height="12" viewBox="0 0 20 12" fill="none" xmlns="http://www.w3.org/2000/svg">
<path d="M13.3333 5.16666C14.7166 5.16666 15.825 4.04999 15.825 2.66666C15.825 1.28332 14.7166 0.166656 13.3333 0.166656C11.95 0.166656 10.8333 1.28332 10.8333 2.66666C10.8333 4.04999 11.95 5.16666 13.3333 5.16666ZM6.66665 5.16666C8.04998 5.16666 9.15831 4.04999 9.15831 2.66666C9.15831 1.28332 8.04998 0.166656 6.66665 0.166656C5.28331 0.166656 4.16665 1.28332 4.16665 2.66666C4.16665 4.04999 5.28331 5.16666 6.66665 5.16666ZM6.66665 6.83332C4.72498 6.83332 0.833313 7.80832 0.833313 9.74999V11C0.833313 11.4583 1.20831 11.8333 1.66665 11.8333H11.6666C12.125 11.8333 12.5 11.4583 12.5 11V9.74999C12.5 7.80832 8.60831 6.83332 6.66665 6.83332ZM13.3333 6.83332C13.0916 6.83332 12.8166 6.84999 12.525 6.87499C12.5416 6.88332 12.55 6.89999 12.5583 6.90832C13.5083 7.59999 14.1666 8.52499 14.1666 9.74999V11C14.1666 11.2917 14.1083 11.575 14.0166 11.8333H18.3333C18.7916 11.8333 19.1666 11.4583 19.1666 11V9.74999C19.1666 7.80832 15.275 6.83332 13.3333 6.83332Z" fill="#403F4C"/>
</svg>
