<svg width="20" height="16" viewBox="0 0 20 16" fill="none" xmlns="http://www.w3.org/2000/svg">
<path d="M7.77997 0V1.38C6.94997 1.05 6.05997 0.88 5.16997 0.88C3.37997 0.88 1.58997 1.56 0.219971 2.93L3.54997 6.26H4.65997V7.37C5.51997 8.23 6.63997 8.68 7.76997 8.73V11H4.77997V14C4.77997 15.1 5.67997 16 6.77997 16H16.78C18.44 16 19.78 14.66 19.78 13V0H7.77997ZM6.66997 6.41V4.26H4.38997L3.34997 3.22C3.91997 3 4.53997 2.88 5.16997 2.88C6.50997 2.88 7.75997 3.4 8.70997 4.34L10.12 5.75L9.91997 5.95C9.40997 6.46 8.72997 6.75 7.99997 6.75C7.52997 6.75 7.06997 6.63 6.66997 6.41ZM17.78 13C17.78 13.55 17.33 14 16.78 14C16.23 14 15.78 13.55 15.78 13V11H9.77997V8.41C10.35 8.18 10.88 7.84 11.34 7.38L11.54 7.18L14.37 10H15.78V8.59L9.77997 2.62V2H17.78V13Z" fill="#1A191F"/>
</svg>
