<svg width="16" height="20" viewBox="0 0 16 20" fill="none" xmlns="http://www.w3.org/2000/svg">
<path d="M13.8333 0.918762H2.16667C1.25 0.918762 0.508333 1.66876 0.508333 2.58543L0.5 13.3604C0.5 13.9354 0.791667 14.4438 1.23333 14.7438L7.54167 18.9438C7.825 19.1271 8.18333 19.1271 8.46667 18.9438L14.7667 14.7438C15.2083 14.4438 15.5 13.9354 15.5 13.3604V2.58543C15.5 1.66876 14.75 0.918762 13.8333 0.918762ZM13.25 6.50209L6.925 12.8271C6.6 13.1521 6.075 13.1521 5.75 12.8271L2.75833 9.83543C2.43333 9.51043 2.43333 8.98543 2.75833 8.66043C3.08333 8.33543 3.60833 8.33543 3.93333 8.66043L6.33333 11.0604L12.0667 5.3271C12.3917 5.0021 12.9167 5.0021 13.2417 5.3271C13.5667 5.65209 13.575 6.17709 13.25 6.50209Z" fill="#403F4C"/>
</svg>
