<svg width="16" height="18" viewBox="0 0 16 18" fill="none" xmlns="http://www.w3.org/2000/svg">
<path d="M14.25 1.91666L13 0.666656L11.75 1.91666L10.5 0.666656L9.25 1.91666L8 0.666656L6.75 1.91666L5.5 0.666656L4.25 1.91666L3 0.666656V12.3333H0.5V14.8333C0.5 16.2167 1.61667 17.3333 3 17.3333H13C14.3833 17.3333 15.5 16.2167 15.5 14.8333V0.666656L14.25 1.91666ZM13.8333 14.8333C13.8333 15.2917 13.4583 15.6667 13 15.6667C12.5417 15.6667 12.1667 15.2917 12.1667 14.8333V12.3333H4.66667V3.16666H13.8333V14.8333Z" fill="#403F4C"/>
<path d="M10.5 4.83332H5.5V6.49999H10.5V4.83332Z" fill="#403F4C"/>
<path d="M13 4.83332H11.3333V6.49999H13V4.83332Z" fill="#403F4C"/>
<path d="M10.5 7.33332H5.5V8.99999H10.5V7.33332Z" fill="#403F4C"/>
<path d="M13 7.33332H11.3333V8.99999H13V7.33332Z" fill="#403F4C"/>
</svg>
