<svg width="20" height="14" viewBox="0 0 20 14" fill="none" xmlns="http://www.w3.org/2000/svg">
<path d="M4.20374 3.50172H1.20374C0.653735 3.50172 0.203735 3.05172 0.203735 2.50172C0.203735 1.95172 0.653735 1.50172 1.20374 1.50172H4.20374C4.75374 1.50172 5.20374 1.95172 5.20374 2.50172C5.20374 3.05172 4.75374 3.50172 4.20374 3.50172ZM4.20374 6.50172H1.20374C0.653735 6.50172 0.203735 6.95172 0.203735 7.50172C0.203735 8.05172 0.653735 8.50172 1.20374 8.50172H4.20374C4.75374 8.50172 5.20374 8.05172 5.20374 7.50172C5.20374 6.95172 4.75374 6.50172 4.20374 6.50172ZM18.0837 12.7917L14.9637 9.67172C14.1037 10.2317 13.0737 10.5517 11.9637 10.4917C9.59374 10.3817 7.56374 8.53172 7.24374 6.18172C6.80374 2.83172 9.69374 0.0017232 13.0737 0.571723C15.0237 0.901723 16.6437 2.42172 17.0737 4.35172C17.4037 5.81172 17.0837 7.17172 16.3737 8.25172L19.5037 11.3817C19.8937 11.7717 19.8937 12.4017 19.5037 12.7917C19.1137 13.1817 18.4737 13.1817 18.0837 12.7917ZM15.2037 5.50172C15.2037 3.85172 13.8537 2.50172 12.2037 2.50172C10.5537 2.50172 9.20374 3.85172 9.20374 5.50172C9.20374 7.15172 10.5537 8.50172 12.2037 8.50172C13.8537 8.50172 15.2037 7.15172 15.2037 5.50172ZM1.20374 13.5017H9.20374C9.75374 13.5017 10.2037 13.0517 10.2037 12.5017C10.2037 11.9517 9.75374 11.5017 9.20374 11.5017H1.20374C0.653735 11.5017 0.203735 11.9517 0.203735 12.5017C0.203735 13.0517 0.653735 13.5017 1.20374 13.5017Z" fill="#1A191F"/>
</svg>
