<?xml version="1.0" standalone="no"?>
<!DOCTYPE svg PUBLIC "-//W3C//DTD SVG 20010904//EN"
 "http://www.w3.org/TR/2001/REC-SVG-20010904/DTD/svg10.dtd">
<svg version="1.0" xmlns="http://www.w3.org/2000/svg"
 width="75.000000pt" height="75.000000pt" viewBox="0 0 75.000000 75.000000"
 preserveAspectRatio="xMidYMid meet">

<g transform="translate(0.000000,75.000000) scale(0.100000,-0.100000)"
fill="#00006b" stroke="none">
<path d="M186 726 c-54 -20 -106 -65 -141 -121 -27 -44 -30 -56 -30 -134 0
-100 19 -145 83 -203 58 -52 116 -71 205 -67 59 4 82 9 114 31 42 27 53 27 53
-1 0 -9 47 -63 105 -121 l105 -105 32 33 33 32 -105 105 c-58 58 -112 105
-121 105 -28 0 -28 11 -1 53 35 53 43 165 17 234 -22 57 -76 118 -129 145 -53
27 -165 34 -220 14z m188 -100 c41 -24 78 -76 90 -128 19 -81 -50 -185 -138
-207 -175 -44 -301 171 -178 303 57 61 154 74 226 32z"/>
</g>
</svg>
