<svg width="18" height="14" viewBox="0 0 18 14" fill="none" xmlns="http://www.w3.org/2000/svg">
<path d="M15.6666 2.00001H8.99996L7.82496 0.82501C7.50829 0.508344 7.08329 0.333344 6.64163 0.333344H2.33329C1.41663 0.333344 0.674959 1.08334 0.674959 2.00001L0.666626 12C0.666626 12.9167 1.41663 13.6667 2.33329 13.6667H15.6666C16.5833 13.6667 17.3333 12.9167 17.3333 12V3.66668C17.3333 2.75001 16.5833 2.00001 15.6666 2.00001ZM9.83329 7.83334V10.3333C9.83329 10.7917 9.45829 11.1667 8.99996 11.1667C8.54163 11.1667 8.16663 10.7917 8.16663 10.3333V7.83334H6.67496C6.29996 7.83334 6.11663 7.38334 6.38329 7.12501L8.71663 4.80001C8.88329 4.63334 9.14163 4.64168 9.30829 4.80001L11.6333 7.12501C11.8833 7.38334 11.7 7.83334 11.3333 7.83334H9.83329Z" fill="#00006B"/>
</svg>
