<svg width="18" height="14" viewBox="0 0 18 14" fill="none" xmlns="http://www.w3.org/2000/svg">
<path d="M15.6665 1.99998H8.99984L7.82484 0.82498C7.50817 0.508313 7.08317 0.333313 6.6415 0.333313H2.33317C1.4165 0.333313 0.674837 1.08331 0.674837 1.99998L0.666504 12C0.666504 12.9166 1.4165 13.6666 2.33317 13.6666H15.6665C16.5832 13.6666 17.3332 12.9166 17.3332 12V3.66665C17.3332 2.74998 16.5832 1.99998 15.6665 1.99998ZM11.4998 4.49998C12.4165 4.49998 13.1665 5.24998 13.1665 6.16665C13.1665 7.08331 12.4165 7.83331 11.4998 7.83331C10.5832 7.83331 9.83317 7.08331 9.83317 6.16665C9.83317 5.24998 10.5832 4.49998 11.4998 4.49998ZM14.8332 11.1666H8.1665V10.3333C8.1665 9.22498 10.3915 8.66665 11.4998 8.66665C12.6082 8.66665 14.8332 9.22498 14.8332 10.3333V11.1666Z" fill="#403F4C"/>
</svg>
