<svg width="14" height="4" viewBox="0 0 14 4" fill="none" xmlns="http://www.w3.org/2000/svg">
<path d="M2.00004 0.333344C1.08337 0.333344 0.333374 1.08334 0.333374 2.00001C0.333374 2.91668 1.08337 3.66668 2.00004 3.66668C2.91671 3.66668 3.66671 2.91668 3.66671 2.00001C3.66671 1.08334 2.91671 0.333344 2.00004 0.333344ZM12 0.333344C11.0834 0.333344 10.3334 1.08334 10.3334 2.00001C10.3334 2.91668 11.0834 3.66668 12 3.66668C12.9167 3.66668 13.6667 2.91668 13.6667 2.00001C13.6667 1.08334 12.9167 0.333344 12 0.333344ZM7.00004 0.333344C6.08337 0.333344 5.33337 1.08334 5.33337 2.00001C5.33337 2.91668 6.08337 3.66668 7.00004 3.66668C7.91671 3.66668 8.66671 2.91668 8.66671 2.00001C8.66671 1.08334 7.91671 0.333344 7.00004 0.333344Z" fill="black"/>
</svg>
