<svg width="20" height="20" viewBox="0 0 20 20" fill="none" xmlns="http://www.w3.org/2000/svg">
<path d="M8.33464 2.91667H11.668C12.1263 2.91667 12.5013 2.54167 12.5013 2.08333C12.5013 1.625 12.1263 1.25 11.668 1.25H8.33464C7.8763 1.25 7.5013 1.625 7.5013 2.08333C7.5013 2.54167 7.8763 2.91667 8.33464 2.91667Z" fill="#00006B"/>
<path d="M15.8596 6.575L16.4846 5.95C16.8013 5.63333 16.8096 5.10833 16.4846 4.78333L16.4763 4.775C16.1513 4.45 15.6346 4.45833 15.3096 4.775L14.6846 5.4C13.393 4.36667 11.768 3.75 10.0013 3.75C6.0013 3.75 2.6013 7.05 2.5013 11.05C2.39297 15.2833 5.78464 18.75 10.0013 18.75C14.1513 18.75 17.5013 15.3917 17.5013 11.25C17.5013 9.48333 16.8846 7.85833 15.8596 6.575ZM10.8346 11.25C10.8346 11.7083 10.4596 12.0833 10.0013 12.0833C9.54297 12.0833 9.16797 11.7083 9.16797 11.25V7.91667C9.16797 7.45833 9.54297 7.08333 10.0013 7.08333C10.4596 7.08333 10.8346 7.45833 10.8346 7.91667V11.25Z" fill="#00006B"/>
</svg>
