<svg width="12" height="16" viewBox="0 0 12 16" fill="none" xmlns="http://www.w3.org/2000/svg">
<path d="M1.00002 13.8333C1.00002 14.75 1.75002 15.5 2.66669 15.5H9.33335C10.25 15.5 11 14.75 11 13.8333V5.5C11 4.58333 10.25 3.83333 9.33335 3.83333H2.66669C1.75002 3.83333 1.00002 4.58333 1.00002 5.5V13.8333ZM11 1.33333H8.91669L8.32502 0.741667C8.17502 0.591667 7.95835 0.5 7.74169 0.5H4.25835C4.04169 0.5 3.82502 0.591667 3.67502 0.741667L3.08335 1.33333H1.00002C0.541687 1.33333 0.166687 1.70833 0.166687 2.16667C0.166687 2.625 0.541687 3 1.00002 3H11C11.4584 3 11.8334 2.625 11.8334 2.16667C11.8334 1.70833 11.4584 1.33333 11 1.33333Z" fill="#403F4C"/>
</svg>
