<svg width="34" height="28" viewBox="0 0 34 28" fill="none" xmlns="http://www.w3.org/2000/svg">
<path d="M30.3333 4.00008H16.9999L14.6499 1.65008C14.0166 1.01675 13.1666 0.666748 12.2833 0.666748H3.66659C1.83325 0.666748 0.349919 2.16675 0.349919 4.00008L0.333252 24.0001C0.333252 25.8334 1.83325 27.3334 3.66659 27.3334H30.3333C32.1666 27.3334 33.6666 25.8334 33.6666 24.0001V7.33341C33.6666 5.50008 32.1666 4.00008 30.3333 4.00008ZM18.6666 15.6667V20.6667C18.6666 21.5834 17.9166 22.3334 16.9999 22.3334C16.0833 22.3334 15.3333 21.5834 15.3333 20.6667V15.6667H12.3499C11.5999 15.6667 11.2333 14.7667 11.7666 14.2501L16.4333 9.60008C16.7666 9.26675 17.2833 9.28341 17.6166 9.60008L22.2666 14.2501C22.7666 14.7667 22.3999 15.6667 21.6666 15.6667H18.6666Z" fill="#00006B"/>
</svg>
